<?xml version="1.0" encoding="UTF-8"?>
<!DOCTYPE svg PUBLIC "-//W3C//DTD SVG 1.1//EN" "http://www.w3.org/Graphics/SVG/1.1/DTD/svg11.dtd">
<!-- Creator: CorelDRAW X6 -->
<svg xmlns="http://www.w3.org/2000/svg" xml:space="preserve" width="51.594mm" height="31.189mm" version="1.1" style="shape-rendering:geometricPrecision; text-rendering:geometricPrecision; image-rendering:optimizeQuality; fill-rule:evenodd; clip-rule:evenodd"
viewBox="0 0 5159 3119"
 xmlns:xlink="http://www.w3.org/1999/xlink">
 <defs>
  <style type="text/css">
   <![CDATA[
    .fil0 {fill:white}
   ]]>
  </style>
 </defs>
 <g id="Camada_x0020_1">
  <metadata id="CorelCorpID_0Corel-Layer"/>
  <g id="_892515296">
   <path class="fil0" d="M726 2502l223 0c62,-5 97,-45 117,-99l226 -598 -149 -419 -276 711 -451 -1480 -416 5 556 1607c32,94 70,276 170,274z"/>
   <path class="fil0" d="M1694 2502l179 0c62,-5 98,-45 117,-99l635 -1782 -257 -1 0 1 -219 0c-74,1 -65,102 0,100 96,21 145,75 116,184l-430 1192 -451 -1480 -416 5 556 1607c33,94 70,276 170,274z"/>
   <path class="fil0" d="M1590 3119c490,0 928,-227 1214,-581 -10,-7 -20,-15 -29,-23 -279,345 -706,566 -1185,566 -841,0 -1523,-682 -1523,-1523 0,-125 15,-246 43,-361l-22 -63c-38,135 -58,277 -58,424 0,861 698,1559 1559,1559zm1461 -1012c64,-170 99,-355 99,-547 0,-861 -698,-1559 -1559,-1559 -468,0 -888,206 -1174,533l50 -1c278,-304 679,-495 1124,-495 448,0 850,193 1129,501l18 21c234,268 375,618 375,1001 0,188 -34,368 -96,534 12,4 23,8 34,13z"/>
   <circle class="fil0" cx="2942" cy="2331" r="185"/>
   <path class="fil0" d="M3375 2507l38 0c10,-1 16,-8 20,-17l38 -102 -25 -71 -47 121 -77 -251 -71 1 95 273c6,16 12,47 29,46z"/>
   <path class="fil0" d="M3539 2507l30 0c10,-1 17,-8 20,-17l108 -303 -44 0 0 0 -37 0c-13,0 -11,17 0,17 16,4 25,13 20,31l-73 202 -77 -251 -71 1 95 273c6,16 12,47 29,46z"/>
   <path class="fil0" d="M3758 2186l30 0c10,1 17,8 20,17l108 303 -44 0 0 0 -37 0c-13,0 -11,-17 0,-17 16,-4 25,-13 20,-31l-73 -202 -77 251 -71 -1 95 -273c6,-16 12,-47 29,-46z"/>
   <path class="fil0" d="M4048 2497c2,-2 3,-5 4,-8l108 -303 -44 0 0 0 -37 0c-13,0 -11,17 0,17 16,4 25,13 20,31l-53 146 -1 -1 -20 56 -76 -250 -71 1 95 273c21,53 19,40 14,84l-50 139 44 0 0 0 37 0c13,0 11,-17 0,-17 -16,-4 -25,-13 -20,-31l50 -138z"/>
   <path class="fil0" d="M4326 2186l38 0c10,1 16,8 20,17l38 102 -25 71 -47 -121 -77 251 -71 -1 95 -273c6,-16 12,-47 29,-46z"/>
   <path class="fil0" d="M4490 2186l30 0c10,1 17,8 20,17l108 303 -44 0 0 0 -37 0c-13,0 -11,-17 0,-17 16,-4 25,-13 20,-31l-73 -202 -77 251 -71 -1 95 -273c6,-16 12,-47 29,-46z"/>
   <path class="fil0" d="M5001 2507l30 0c10,-1 17,-8 20,-17l108 -303 -44 0 0 0 -37 0c-13,0 -11,17 0,17 16,4 25,13 20,31l-73 202 -77 -251 -71 1 95 273c6,16 12,47 29,46z"/>
   <circle class="fil0" cx="4131" cy="2477" r="31"/>
   <path class="fil0" d="M4818 2506l-113 0c-26,0 -47,-21 -47,-47l0 -226c0,-26 21,-47 47,-47l113 0c26,0 47,21 47,47l0 226c0,26 -21,47 -47,47zm-25 -50l-62 0c-14,0 -26,-12 -26,-26l0 -168c0,-14 12,-26 26,-26l62 0c14,0 26,12 26,26l0 168c0,14 -12,26 -26,26z"/>
  </g>
 </g>
</svg>
