<?xml version="1.0" encoding="UTF-8"?>
<!DOCTYPE svg PUBLIC "-//W3C//DTD SVG 1.1//EN" "http://www.w3.org/Graphics/SVG/1.1/DTD/svg11.dtd">
<!-- Creator: CorelDRAW X6 -->
<svg xmlns="http://www.w3.org/2000/svg" xml:space="preserve" width="51.594mm" height="20.6643mm" version="1.1" style="shape-rendering:geometricPrecision; text-rendering:geometricPrecision; image-rendering:optimizeQuality; fill-rule:evenodd; clip-rule:evenodd"
viewBox="0 0 5159 2066"
 xmlns:xlink="http://www.w3.org/1999/xlink">
 <defs>
  <style type="text/css">
   <![CDATA[
    .fil2 {fill:black}
    .fil0 {fill:url(#id0)}
    .fil1 {fill:url(#id1)}
   ]]>
  </style>
  <linearGradient id="id0" gradientUnits="userSpaceOnUse" x1="623.8" y1="1902.1" x2="668.56" y2="-14.56">
   <stop offset="0" style="stop-color:#FFCC00"/>
   <stop offset="1" style="stop-color:yellow"/>
  </linearGradient>
  <linearGradient id="id1" gradientUnits="userSpaceOnUse" xlink:href="#id0" x1="1778.67" y1="1902.51" x2="1814.12" y2="-14.98">
  </linearGradient>
 </defs>
 <g id="Camada_x0020_1">
  <metadata id="CorelCorpID_0Corel-Layer"/>
  <path class="fil0" d="M726 1885l223 0c62,-5 97,-45 117,-99l226 -598 -149 -419 -276 711 -451 -1480 -416 5 556 1607c32,94 70,276 170,274z"/>
  <path class="fil1" d="M1694 1885l179 0c62,-5 98,-45 117,-99l635 -1782 -257 -1 0 1 -219 0c-74,1 -65,102 0,100 96,21 145,75 116,184l-430 1192 -451 -1480 -416 5 556 1607c33,94 70,276 170,274z"/>
  <path class="fil2" d="M3375 1890l38 0c10,-1 16,-8 20,-17l38 -102 -25 -71 -47 121 -77 -251 -71 1 95 273c6,16 12,47 29,46z"/>
  <path class="fil2" d="M3539 1890l30 0c10,-1 17,-8 20,-17l108 -303 -44 0 0 0 -37 0c-13,0 -11,17 0,17 16,4 25,13 20,31l-73 202 -77 -251 -71 1 95 273c6,16 12,47 29,46z"/>
  <path class="fil2" d="M3758 1569l30 0c10,1 17,8 20,17l108 303 -44 0 0 0 -37 0c-13,0 -11,-17 0,-17 16,-4 25,-13 20,-31l-73 -202 -77 251 -71 -1 95 -273c6,-16 12,-47 29,-46z"/>
  <path class="fil2" d="M4048 1881c2,-2 3,-5 4,-8l108 -303 -44 0 0 0 -37 0c-13,0 -11,17 0,17 16,4 25,13 20,31l-53 146 -1 -1 -20 56 -76 -250 -71 1 95 273c21,53 19,40 14,84l-50 139 44 0 0 0 37 0c13,0 11,-17 0,-17 -16,-4 -25,-13 -20,-31l50 -138z"/>
  <path class="fil2" d="M4326 1569l38 0c10,1 16,8 20,17l38 102 -25 71 -47 -121 -77 251 -71 -1 95 -273c6,-16 12,-47 29,-46z"/>
  <path class="fil2" d="M4490 1569l30 0c10,1 17,8 20,17l108 303 -44 0 0 0 -37 0c-13,0 -11,-17 0,-17 16,-4 25,-13 20,-31l-73 -202 -77 251 -71 -1 95 -273c6,-16 12,-47 29,-46z"/>
  <path class="fil2" d="M5001 1890l30 0c10,-1 17,-8 20,-17l108 -303 -44 0 0 0 -37 0c-13,0 -11,17 0,17 16,4 25,13 20,31l-73 202 -77 -251 -71 1 95 273c6,16 12,47 29,46z"/>
  <circle class="fil2" cx="4131" cy="1861" r="31"/>
  <path class="fil2" d="M4818 1889l-113 0c-26,0 -47,-21 -47,-47l0 -226c0,-26 21,-47 47,-47l113 0c26,0 47,21 47,47l0 226c0,26 -21,47 -47,47zm-25 -50l-62 0c-14,0 -26,-12 -26,-26l0 -168c0,-14 12,-26 26,-26l62 0c14,0 26,12 26,26l0 168c0,14 -12,26 -26,26z"/>
 </g>
</svg>
