<?xml version="1.0" encoding="UTF-8"?>
<!DOCTYPE svg PUBLIC "-//W3C//DTD SVG 1.1//EN" "http://www.w3.org/Graphics/SVG/1.1/DTD/svg11.dtd">
<!-- Creator: CorelDRAW X6 -->
<svg xmlns="http://www.w3.org/2000/svg" xml:space="preserve" width="31.189mm" height="31.189mm" version="1.1" style="shape-rendering:geometricPrecision; text-rendering:geometricPrecision; image-rendering:optimizeQuality; fill-rule:evenodd; clip-rule:evenodd"
viewBox="0 0 3119 3119"
 xmlns:xlink="http://www.w3.org/1999/xlink">
 <defs>
  <style type="text/css">
   <![CDATA[
    .fil0 {fill:url(#id0)}
    .fil1 {fill:url(#id1)}
   ]]>
  </style>
  <linearGradient id="id0" gradientUnits="userSpaceOnUse" x1="1533.84" y1="3143.7" x2="1585.08" y2="-24.79">
   <stop offset="0" style="stop-color:#FFCC00"/>
   <stop offset="1" style="stop-color:yellow"/>
  </linearGradient>
  <linearGradient id="id1" gradientUnits="userSpaceOnUse" xlink:href="#id0" x1="2909.36" y1="2521.44" x2="2915.02" y2="2141.58">
  </linearGradient>
 </defs>
 <g id="Camada_x0020_1">
  <metadata id="CorelCorpID_0Corel-Layer"/>
  <g id="_894658288">
   <path class="fil0" d="M1560 3119c490,0 928,-226 1214,-580 -10,-7 -20,-15 -29,-23 -279,345 -706,566 -1185,566 -651,0 -1207,-409 -1424,-984l4 0c-64,-167 -98,-349 -98,-539 0,-839 680,-1518 1518,-1518l3 0 0 -4c447,1 848,194 1126,501l18 21c234,268 375,618 375,1001 0,188 -34,368 -96,534 12,4 23,8 34,13 64,-170 99,-355 99,-547 0,-860 -697,-1558 -1557,-1559l0 0 -3 0c-861,0 -1560,698 -1560,1560 0,189 34,371 96,539l0 0c219,596 792,1021 1464,1021z"/>
   <path class="fil1" d="M3097 2332c0,-102 -83,-185 -185,-185 -102,0 -185,83 -185,185 0,102 83,185 185,185 102,0 185,-83 185,-185z"/>
  </g>
 </g>
</svg>
